# xmcd
#
# Track frame offsets: 
#        150
#        14111
#        30549
#        49036
#        64282
#        79722
#        93124
#        111767
#        129163
#        144800
#        158337
#
# Disc length: 2385 seconds
#
# Revision: 1
# Processed by: cddbd v1.5.2PL0 Copyright (c) Steve Scherf et al.
# Submitted via: ExactAudioCopy v0.90b4
#
DISCID=7d094f0b
DTITLE=Chris Knight - The Trailer Tapes
DYEAR=2007
DGENRE=Americana
TTITLE0=Backwater Blues
TTITLE1=Something Changed
TTITLE2=Rita's Only Fault
TTITLE3=Spike Drivin' Blues
TTITLE4=Move On
TTITLE5=Hard Edges
TTITLE6=Here Comes the Rain
TTITLE7=Leaving Souvenirs
TTITLE8=House and 90 Acres
TTITLE9=If I Were You
TTITLE10=My Only Prayer
EXTD=submited by Francesco Magni
EXTT0=
EXTT1=
EXTT2=
EXTT3=
EXTT4=
EXTT5=
EXTT6=
EXTT7=
EXTT8=
EXTT9=
EXTT10=
PLAYORDER=
